<svg xmlns="http://www.w3.org/2000/svg" viewBox="0 0 104 32" style="background-color: fffdf5;">
<g fill="white" fill-rule="evenodd"><path fill="#FFD63C" d="M24.39 0c2.407 0 4.041.932 4.905 2.797.19.359.328 1.016.413 1.971 0 2.394-1.385 4.952-4.154 7.672-1.276 1.273-2.855 2.582-4.74 3.927-1.643 1.077-3.08 1.826-4.31 2.246-.611.24-1.648.536-3.104.891l-1.457 5.012a23.46 23.46 0 003.169.945c1.027.225 2.368.302 4.023.23a10.483 10.483 0 004.596-1.256 10.223 10.223 0 002.35-1.772 12.96 12.96 0 001.237-1.488 38.038 38.038 0 002.643-4.287c.022-1.143.116-1.932.285-2.366a.38.38 0 01.128-.108l.01-.03c.23-.298.546-.13.951.504l.023 2.006c-.038 1.979.084 3.38.367 4.2.218.634.482.822.79.57.05-.058.099-.125.15-.202.358-.55 1.012-1.813 1.961-3.785-.02-.69-.018-1.449.004-2.279.088-3.258.47-5.893 1.146-7.902.409-1.215.888-2.079 1.436-2.597.397-.426.831-.664 1.304-.71 1.058-.103 1.415 1.165 1.071 3.805-.344 2.64-1.536 5.592-3.576 8.854-.046 1.673.138 3.053.55 4.138.383 1.006.936 1.17 1.658.492.01-.012.022-.022.033-.034.806-.87 1.908-2.586 3.306-5.146a.72.72 0 01.062.001l.076-.139c.222-.007.298.073.23.241-1.871 3.561-3.22 5.73-4.046 6.504-.253.266-.464.418-.631.453-.718.153-1.356-.32-1.914-1.42-.347-.686-.567-1.794-.664-3.314-.723 1.507-1.243 2.527-1.56 3.055-.19.318-.374.551-.552.71-.294.325-.572.444-.834.35-1.062-.198-1.65-1.818-1.765-4.86l-.001-.113c-.61 1.111-1.394 2.357-2.355 3.741a13.378 13.378 0 01-1.666 1.986c-.998 1.002-2.085 1.726-3.262 2.169-1.807.68-3.624.986-5.45.917-1.804-.068-3.7-.394-5.691-.976-.327.812-.793 1.752-1.403 2.82-.463.743-.954 1.363-1.472 1.865C7.54 31.428 6.29 32 4.905 32h-.229c-.955 0-1.719-.611-2.292-1.834-.092-.351-.138-.626-.138-.825 0-1.123.445-2.136 1.336-3.037.028-.029.058-.054.086-.082.018-.018.033-.038.051-.056.89-.902 1.973-1.486 3.25-1.753 1.24-.26 2.324-.335 3.255-.226a58.16 58.16 0 00.767-2.004c.253-.699.474-1.503.665-2.412-1.62.176-3.417.137-5.393-.115-1.975-.252-3.88-1.028-5.713-2.327-.367-.35-.55-.595-.55-.733v-.138c0-.04.047-.077.138-.11v-.027c0-.053.076-.1.229-.138.443 0 .886.26 1.33.78.771.611 1.791 1.108 3.06 1.49 1.268.382 2.655.577 4.16.584 1.405.007 2.369-.063 2.901-.21 1.33-5.788 2.678-9.972 4.044-12.546.68-1.253 1.566-2.445 2.66-3.576l.046-.04.091-.098C20.569.856 22.419 0 24.206 0zm43.038 0c2.407 0 4.042.932 4.905 2.797.191.359.329 1.016.413 1.971 0 2.394-1.385 4.952-4.154 7.672-1.276 1.273-2.855 2.582-4.74 3.927-1.643 1.077-3.08 1.826-4.31 2.246-.611.24-1.648.536-3.104.891l-1.457 5.012a23.46 23.46 0 003.169.945c1.028.225 2.368.302 4.023.23a10.484 10.484 0 004.596-1.256 10.227 10.227 0 002.35-1.772c.434-.448.847-.943 1.237-1.488a37.996 37.996 0 002.607-4.218v-1.049c0-.384.092-.63.27-.746a.462.462 0 01.418-.217c.214.062.321.184.321.367l-.183 3.21c.091.94.32 1.413.688 1.42h.045c.045 0 .102-.028.168-.084.276-.313.678-.956 1.208-1.932.504-.948.977-2.201 1.42-3.76a.842.842 0 01.268-.366c.114-.152.254-.23.42-.23h.184c.382 0 .642.321.78.963a42.348 42.348 0 00-.253 5.25c.122 1.054.29 1.581.504 1.581h.046c.078-.008.18-.073.304-.186.24-.258.546-.666.923-1.235a61.141 61.141 0 002.008-3.29c-.01-.753-.014-1.574-.014-2.464v-.32c0-.4.118-.687.349-.87a.918.918 0 01.522-.323h.046c.244 0 .366.23.366.688 0 .336.016.504.047.504-.031.214-.047.337-.047.367a690.54 690.54 0 00-.045 4.86c0 1.589.092 2.384.275 2.384h.042c.21-.318.578-1.187 1.104-2.614.785-1.924 1.465-3.148 2.042-3.68.274-.295.525-.446.754-.446.543 0 .925.764 1.147 2.292.412 2.354.794 3.53 1.146 3.53.123-.026.265-.112.424-.258.327-.347.72-.917 1.18-1.712.697-1.095 1.177-1.81 1.44-2.15a7.625 7.625 0 011.597-2.217l.037-.035c.034-.034.066-.07.101-.103 1-.978 1.91-1.41 2.728-1.295.817.114 1.234.386 1.25.814 0 .126-.055.205-.156.245-.038.11-.137.167-.304.167-.305-.61-.762-.821-1.37-.63-.267.084-.55.27-.85.554-.338.353-.697.83-1.075 1.434-.767 1.227-1.102 2.656-1.002 4.287.094 1.544.424 2.075.99 1.596.261-.34.798-1.584 1.611-3.734.63-1.54 1.184-2.525 1.665-2.96.279-.303.534-.433.765-.386.459 0 .688.153.688.458v.092c-.092 2.01-.13 3.515-.115 4.516.038.901.176 1.337.413 1.306h.183c.059-.001.133-.044.219-.119.476-.535 1.266-1.91 2.371-4.133l.06.018.078-.156.149.046.069.15c-1.185 2.498-1.97 3.988-2.356 4.47a4.553 4.553 0 01-.423.469c-.246.261-.44.396-.58.401h-.137c-.604 0-1.003-.307-1.198-.922-.195-.615-.292-1.312-.292-2.092s.092-1.83.275-3.152c-.075-.045-.162-.027-.263.05-.447.524-1.1 2.025-1.96 4.512-.265.885-.57 1.477-.917 1.78-.213.242-.442.368-.688.374h-.275c-.84-.122-1.421-.618-1.742-1.49-.274-.743-.301-1.63-.09-2.652-1.029 1.711-1.819 2.828-2.37 3.35-.306.32-.549.483-.726.483-.444 0-.856-.626-1.238-1.88-.245-1.115-.474-2.46-.688-4.034-.084-.122-.191-.183-.32-.183-.058 0-.121.028-.19.083-.5.574-1.26 2.286-2.286 5.143-.374.893-.703 1.458-.987 1.699-.157.18-.302.272-.435.272h-.091c-.321 0-.55-.489-.688-1.467-.1-.903-.166-2.263-.2-4.07-.76 1.355-1.443 2.474-2.046 3.348a6.401 6.401 0 01-.814.992c-.46.486-.85.67-1.17.556-.404-.077-.721-.42-.95-1.032-.23-.611-.333-1.13-.31-1.559-.03-1.505.03-2.682.183-3.53h-.061c-.93 2.082-1.692 3.401-2.288 3.957-.273.296-.514.444-.722.444h-.23c-.618 0-1-.61-1.146-1.834v-1.015c-.605 1.095-1.377 2.32-2.32 3.68a13.378 13.378 0 01-1.667 1.986c-.998 1.002-2.085 1.726-3.262 2.169-1.807.68-3.623.986-5.45.917-1.803-.068-3.7-.394-5.69-.976-.328.812-.794 1.752-1.404 2.82-.462.743-.954 1.363-1.472 1.865C50.58 31.428 49.328 32 47.944 32h-.23c-.955 0-1.719-.611-2.292-1.834-.092-.351-.138-.626-.138-.825 0-1.123.446-2.136 1.336-3.037.028-.029.058-.054.086-.082.018-.018.033-.038.051-.056.89-.902 1.974-1.486 3.25-1.753 1.24-.26 2.325-.335 3.255-.226.275-.682.532-1.351.767-2.004.253-.699.474-1.503.665-2.412-1.62.176-3.417.137-5.392-.115-1.976-.252-3.88-1.028-5.714-2.327-.367-.35-.55-.595-.55-.733v-.138c0-.04.047-.077.138-.11v-.027c0-.053.076-.1.229-.138.443 0 .886.26 1.33.78.771.611 1.791 1.108 3.06 1.49 1.268.382 2.655.577 4.16.584 1.405.007 2.369-.063 2.901-.21 1.33-5.788 2.678-9.972 4.044-12.546.68-1.253 1.567-2.445 2.66-3.576l.046-.04.091-.098C63.607.856 65.457 0 67.245 0zM52.86 25.26c-.855-.099-1.858-.024-3.008.224-1.083.234-1.972.703-2.672 1.401-.713.769-1.07 1.526-1.07 2.273v.137c0 .688.351 1.146 1.054 1.376.306.091.627.152.963.183.68 0 1.36-.339 2.038-1.005.9-.944 1.798-2.472 2.695-4.588zm-43.038 0c-.856-.099-1.858-.024-3.008.224-1.083.234-1.972.703-2.672 1.401-.713.769-1.07 1.526-1.07 2.273v.137c0 .688.351 1.146 1.054 1.376.306.091.626.152.963.183.68 0 1.36-.339 2.038-1.005.9-.944 1.798-2.472 2.695-4.588zM24.206.78h-.413c-1.386 0-2.754.67-4.105 2.004-.606.619-1.21 1.37-1.808 2.259a26.05 26.05 0 00-2.247 4.768c-.588 1.604-1.005 3.154-1.249 4.647a87.34 87.34 0 01-.745 4.018c.65 0 2.093-.444 4.332-1.33 1.887-.856 3.844-2.23 5.869-4.126.192-.18.379-.358.56-.535 2.711-2.689 4.07-5.078 4.07-7.167v-.046c0-2.116-.917-3.537-2.751-4.263-.58-.153-1.085-.23-1.513-.23zm43.038 0h-.412c-1.386 0-2.755.67-4.106 2.004-.606.619-1.21 1.37-1.808 2.259a26.036 26.036 0 00-2.246 4.768c-.59 1.604-1.006 3.154-1.25 4.647a87.071 87.071 0 01-.745 4.018c.65 0 2.094-.444 4.332-1.33 1.888-.856 3.844-2.23 5.869-4.126.192-.18.379-.358.56-.535 2.711-2.689 4.07-5.078 4.07-7.167v-.046c0-2.116-.917-3.537-2.75-4.263-.582-.153-1.086-.23-1.514-.23zm-28.39 5.002c-.108-.615-.413-.79-.917-.527a.938.938 0 00-.173.12c-.39.442-.76 1.325-1.11 2.654-.444 1.677-.67 3.232-.677 4.664a291.61 291.61 0 01-.033 3.308c.524-.95 1.034-2.077 1.528-3.382.54-1.421.93-2.762 1.175-4.023.245-1.26.313-2.199.207-2.814zm4.034-.36c.474.228.71.702.71 1.42-.022.268-.19.68-.504 1.238-.054.058-.098.101-.136.135l-.001.003c-.13.138-.21.206-.24.206H42.6c-.03 0-.068-.038-.114-.114v-.092c.038-.283.057-.44.057-.47 0-.497-.137-.802-.412-.917-.161-.214-.241-.382-.241-.504v-.035c.03-.319.13-.532.296-.643a.526.526 0 01.46-.228z"/><path fill="#C64591" d="M84.125 24.472c.17 0 .304.041.404.123.099.081.156.188.17.32h-.29a.284.284 0 00-.087-.162.277.277 0 00-.197-.067.272.272 0 00-.181.058c-.045.038-.068.094-.068.166 0 .056.016.103.047.14.031.036.07.065.119.087.047.02.113.045.196.074.105.032.19.066.257.1a.468.468 0 01.17.146c.046.065.069.15.069.255a.428.428 0 01-.237.395.623.623 0 01-.294.063.737.737 0 01-.304-.06.53.53 0 01-.214-.168.476.476 0 01-.091-.25h.287a.295.295 0 00.092.187.302.302 0 00.218.077.259.259 0 00.19-.066.227.227 0 00.066-.17.218.218 0 00-.049-.146.35.35 0 00-.122-.09 2.246 2.246 0 00-.2-.076 1.774 1.774 0 01-.253-.099.411.411 0 01-.234-.39c0-.09.022-.167.066-.235a.43.43 0 01.188-.156.677.677 0 01.282-.056zm10.743.021v.76l.658-.76h.325l-.732.821.732.84h-.327l-.656-.77v.77H94.6v-1.66h.268zm-4.604.026l.54 1.305.532-1.305h.325v1.635h-.27v-1.225l-.473 1.225h-.235l-.475-1.225v1.225h-.268v-1.635h.324zm7.787-.026v.217h-.682v.503h.612v.207h-.612v.515h.682v.219h-.95v-1.66h.95zm-10.06.003l.806 1.23v-1.23h.268v1.658h-.268l-.806-1.225v1.225h-.268v-1.658h.268zm-1.921-.002v.216h-.464v1.443h-.27V24.71h-.461v-.216h1.195zm6.863 0v.216h-.682v.503h.611v.207h-.611v.515h.682v.219h-.95v-1.66h.95zm.846 0c.19 0 .334.046.432.138a.481.481 0 01.147.367c0 .13-.037.237-.11.32a.52.52 0 01-.316.16l.435.675h-.3l-.414-.664h-.191v.664h-.268v-1.66h.585zm-15.978 0v.216h-.464v1.443h-.27V24.71h-.461v-.216H77.8zm-1.392 0v1.66h-.268v-1.66h.268zm-2.401 0l.287 1.35.364-1.35h.296l.365 1.35.287-1.35h.294l-.414 1.66h-.33l-.35-1.284-.35 1.283h-.33l-.413-1.66h.294zm4.26 0v.696h.78v-.696h.271v1.66h-.27v-.746h-.78v.745H78v-1.66h.268zm8.187 0l.381.768.38-.768h.307l-.553 1.055v.604h-.27v-.604l-.555-1.055h.31zm9.863 0v1.45h.574v.21h-.842v-1.66h.268zm-13 0v1.66h-.267v-1.66h.268zm15.18 0l.381.768.38-.768h.307l-.553 1.055v.604h-.27v-.604l-.555-1.055h.31zm-16.268 0c.19 0 .334.046.432.138a.481.481 0 01.146.367c0 .13-.036.237-.109.32a.52.52 0 01-.316.16l.435.675h-.301l-.414-.664h-.19v.664h-.268v-1.66h.585zm-1.768 0v.759l.658-.76h.325l-.732.821.732.84h-.327l-.656-.77v.77h-.268v-1.66h.268zm-9.067.457a.387.387 0 110 .773.387.387 0 010-.773zm31.097-.12a.387.387 0 110 .774.387.387 0 010-.774zm-20.283-.107h-.296v.576h.296c.216 0 .324-.096.324-.287a.282.282 0 00-.078-.213c-.053-.05-.135-.076-.246-.076zm11.55 0h-.297v.576h.296c.216 0 .325-.096.325-.287a.282.282 0 00-.08-.213c-.052-.05-.134-.076-.245-.076zM31.59 10.158c.267-.142.538-.165.618.045.181.371-.049.819-.445 1.25-.631.76-.931 1.235-1.071 1.289-.092.075-.18-.052-.26-.262l-.216-.358-.516-.724c-.256-.463-.246-1.068.055-1.223.358-.216.644.116.848.439.115.196.194.406.2.524.133-.491.486-.826.787-.98z"/></g></svg>